<?xml version="1.0" encoding="UTF-8"?>
<svg width="46px" height="36px" viewBox="0 0 46 36" version="1.1" xmlns="http://www.w3.org/2000/svg" xmlns:xlink="http://www.w3.org/1999/xlink">
    <!-- Generator: Sketch 52.6 (67491) - http://www.bohemiancoding.com/sketch -->
    <title>ic_2BHK</title>
    <desc>Created with Sketch.</desc>
    <g id="ICONS" stroke="none" stroke-width="1" fill="none" fill-rule="evenodd">
        <g id="PLP-3.0-icons" transform="translate(-326.000000, -1678.000000)">
            <g id="ic_2BK" transform="translate(326.000000, 1678.000000)">
                <g id="Group-28" transform="translate(2.000000, 0.000000)">
                    <path d="M3.0417867,12.8719423 L21,2 L38.9582133,12.8719423 C39.6049215,13.2634609 40,13.9644807 40,14.720469 L40,31.8391111 C40,33.0325371 39.0325371,34 37.8391111,34 L4.16088889,34 C2.96746291,34 2,33.0325371 2,31.8391111 L2,14.720469 C2,13.9644807 2.39507847,13.2634609 3.0417867,12.8719423 Z" id="Rectangle" fill="#346AA0"></path>
                    <rect id="Rectangle" fill="#FFFFFF" x="13.6559374" y="14.0775401" width="13.6559374" height="14.0775401" rx="2.34"></rect>
                    <path d="M24.0630233,25.4668253 L17.4832536,25.4668253 L17.4832536,24.01663 L20.5140924,20.7734659 C21.2610123,19.907739 21.6344666,19.2200017 21.6344666,18.7102335 C21.6344666,18.2971455 21.5459601,17.9829397 21.3689444,17.7676066 C21.1919287,17.5522735 20.9350439,17.4446085 20.5982824,17.4446085 C20.2658383,17.4446085 19.9960013,17.588528 19.7887635,17.8763712 C19.5815256,18.1642145 19.4779082,18.5234638 19.4779082,18.95413 L17.288969,18.95413 C17.288969,18.3652599 17.4336016,17.8214421 17.7228712,17.3226603 C18.0121407,16.8238785 18.4136581,16.4338677 18.9274353,16.1526163 C19.4412126,15.8713649 20.0154256,15.7307413 20.6500916,15.7307413 C21.6690112,15.7307413 22.453697,15.9702409 23.0041726,16.4492472 C23.5546482,16.9282535 23.8298819,17.6159908 23.8298819,18.5124796 C23.8298819,18.8904112 23.7608036,19.2584495 23.622645,19.6166056 C23.4844865,19.9747617 23.2696962,20.3504903 22.978268,20.7438029 C22.6868397,21.1371154 22.2173234,21.6633552 21.5697051,22.3225382 L20.3521886,23.7529581 L24.0630233,23.7529581 L24.0630233,25.4668253 Z" id="2" fill="#346AA0"></path>
                </g>
            </g>
        </g>
    </g>
</svg>