<?xml version="1.0" encoding="UTF-8"?>
<svg width="24px" height="36px" viewBox="0 0 24 36" version="1.1" xmlns="http://www.w3.org/2000/svg" xmlns:xlink="http://www.w3.org/1999/xlink">
    <!-- Generator: Sketch 52.6 (67491) - http://www.bohemiancoding.com/sketch -->
    <title>ic_drawers</title>
    <desc>Created with Sketch.</desc>
    <g id="ICONS" stroke="none" stroke-width="1" fill="none" fill-rule="evenodd">
        <g id="PLP-3.0-icons" transform="translate(-229.000000, -1330.000000)" fill="#346AA0">
            <g id="ic_drawers" transform="translate(229.000000, 1330.000000)">
                <g id="Group-25" transform="translate(4.000000, 0.000000)">
                    <g id="Group-14" transform="translate(2.000000, 0.000000)">
                        <g id="Group-12">
                            <path d="M1.59986111,0.614674075 L10.868236,0.619014672 C11.751642,0.619367475 12.467597,1.33560847 12.467597,2.21901454 L12.4682361,28.4479247 L-0.000138765346,28.4429453 L-0.000777624802,2.21403509 C-0.000777624802,1.33037949 0.715566775,0.614035088 1.59922238,0.614035088 C1.59943537,0.614035088 1.59964837,0.61403513 1.59986136,0.614035215 Z" id="Rectangle-18"></path>
                        </g>
                    </g>
                    <g id="Group-9" transform="translate(0.000000, 18.000000)">
                        <path d="M1.43999998,0.546826843 L15.1965618,0.549656577 C15.9917471,0.549804646 16.6362936,1.19447122 16.6362936,1.98965655 L16.6365618,15.9364217 C16.6365618,16.3129873 16.3312951,16.618254 15.9547295,16.618254 C15.9547041,16.618254 15.9546787,16.618254 15.9546533,16.618254 L15.9546533,16.618254 C15.5780334,16.6182119 15.2727449,16.3128893 15.2727449,15.9362693 L15.2727449,15.2307692 L1.36777625,15.2307692 L1.36777625,15.931802 C1.36777625,16.3094186 1.06165749,16.6155374 0.684040865,16.6155374 C0.683989951,16.6155374 0.683939038,16.6155374 0.683888124,16.6155374 L0.683888124,16.6155374 C0.306162432,16.615453 3.55682226e-13,16.3092222 3.53623055e-13,15.9314965 L-0.000268113369,1.9865587 C-0.000268113369,1.19126866 0.644441847,0.546558704 1.43973189,0.546558704 C1.43982127,0.546558704 1.43991065,0.546558713 1.44000002,0.546558729 Z" id="Rectangle-18"></path>
                        <path d="M3.72345443,5.08299595 L13.265691,5.08299595" id="Line-8" stroke="#FFFFFF" stroke-width="1.44" stroke-linecap="round"></path>
                        <path d="M3.69230769,9.23684211 L12.9230769,9.23684211" id="Line-8" stroke="#FFFFFF" stroke-width="1.44" stroke-linecap="round"></path>
                    </g>
                </g>
            </g>
        </g>
    </g>
</svg>