<?xml version="1.0" encoding="UTF-8"?>
<svg width="50px" height="34px" viewBox="0 0 50 34" version="1.1" xmlns="http://www.w3.org/2000/svg" xmlns:xlink="http://www.w3.org/1999/xlink">
    <!-- Generator: Sketch 58 (84663) - https://sketch.com -->
    <title>Artboard</title>
    <desc>Created with Sketch.</desc>
    <g id="Artboard" stroke="none" stroke-width="1" fill="none" fill-rule="evenodd">
        <g id="ic_festive_looks_1" transform="translate(1.000000, 2.000000)" fill="#346AA0" fill-rule="nonzero">
            <g id="Group-2" transform="translate(4.838710, 10.645161)">
                <path d="M36.0907205,1.65760655 C36.076533,0.729060108 35.3523003,-0.0122786579 34.4715127,0.00015411982 L21.2547041,0.00015411982 C20.8260264,-0.00292636106 20.4140829,0.175364234 20.1111106,0.495105388 C19.8032978,0.825104207 19.6339164,1.27149092 19.6409133,1.73426053 L19.6394686,10.6409733 L33.7408513,10.6451613 L33.7408513,10.3469214 C33.7484471,8.85490707 34.9159665,8.18858566 36.0910815,8.18858566 L36.0907205,1.65760655 Z" id="Path"></path>
                <path d="M18.6713664,1.65760655 C18.6571788,0.729060108 17.9329462,-0.0122786579 17.0521586,0.00015411982 L3.83534992,0.00015411982 C3.40667235,-0.00292636106 2.99472876,0.175364234 2.69175656,0.495105388 C2.38394367,0.825104207 2.21456228,1.27149092 2.2215592,1.73426053 L2.22011458,10.6409733 L16.3214971,10.6451613 L16.3214971,10.3469214 C16.329093,8.85490707 17.4966122,8.18858566 18.6717274,8.18858566 L18.6713664,1.65760655 Z" id="Path" transform="translate(10.445921, 5.322581) scale(-1, 1) translate(-10.445921, -5.322581) "></path>
                <g id="Group" transform="translate(0.000000, 9.193548)">
                    <path d="M36.7741935,0.000115254684 C35.7202843,-0.00985157642 34.854578,0.633962641 34.8387097,1.4395088 L34.8387097,9.67741935 L38.7096774,9.67741935 L38.7096774,1.4395088 C38.6938704,0.633942368 37.8281275,-0.0098990551 36.7741935,0.000115254684 Z" id="Path"></path>
                    <path d="M1.93548387,0.000115254684 C0.881574468,-0.00985157642 0.0158683241,0.633962641 0,1.4395088 L0,9.67741935 L3.87096774,9.67741935 L3.87096774,1.4395088 C3.85516075,0.633942368 2.98941788,-0.0098990551 1.93548387,0.000115254684 Z" id="Path"></path>
                </g>
                <polygon id="Path" points="19.18735 11.6175066 19.1871141 11.6175066 19.1869962 11.6175066 19.1867601 11.6175066 4.64516129 11.6129032 4.64516129 16.4413234 33.8709677 16.4516129 33.8709677 11.6222451 19.187704 11.6175066"></polygon>
            </g>
            <path d="M9.67741935,4.83870968 C9.67741935,4.83870968 14.516129,4.78064517 14.516129,9.67741935 C14.516129,4.76129032 19.3548387,4.83870968 19.3548387,4.83870968 C19.3548387,4.83870968 14.516129,4.8967742 14.516129,0 C14.4954509,4.8967742 9.67741935,4.83870968 9.67741935,4.83870968 Z" id="Path"></path>
            <path d="M0,10.6451613 C0,10.6451613 2.90322581,10.6127231 2.90322581,13.5483871 C2.90322581,10.6127231 5.80645161,10.6451613 5.80645161,10.6451613 C5.80645161,10.6451613 2.90322581,10.6775995 2.90322581,7.74193548 C2.90322581,10.6775995 0,10.6451613 0,10.6451613 Z" id="Path"></path>
            <path d="M23.2258065,6.29032258 C23.2258065,6.29032258 26.1290323,6.25788435 26.1290323,9.19354839 C26.1290323,6.25788435 29.0322581,6.29032258 29.0322581,6.29032258 C29.0322581,6.29032258 26.1290323,6.32276085 26.1290323,3.38709677 C26.1290323,6.32276085 23.2258065,6.29032258 23.2258065,6.29032258 Z" id="Path"></path>
            <path d="M31.9354839,2.90322581 C31.9354839,2.90322581 33.8709677,2.88160033 33.8709677,4.83870968 C33.8709677,2.88160033 35.8064516,2.90322581 35.8064516,2.90322581 C35.8064516,2.90322581 33.8709677,2.92485132 33.8709677,0.967741935 C33.8709677,2.92485132 31.9354839,2.90322581 31.9354839,2.90322581 Z" id="Path"></path>
            <path d="M39.6774194,8.70967742 C39.6774194,8.70967742 43.5483871,8.655538 43.5483871,12.5806452 C43.5483871,8.655538 47.4193548,8.70967742 47.4193548,8.70967742 C47.4193548,8.70967742 43.5483871,8.76381682 43.5483871,4.83870968 C43.5483871,8.73674712 39.6774194,8.70967742 39.6774194,8.70967742 Z" id="Path"></path>
        </g>
    </g>
</svg>