<svg xmlns="http://www.w3.org/2000/svg" xmlns:xlink="http://www.w3.org/1999/xlink" width="53" height="46" viewBox="0 0 53 46">
    <defs>
        <ellipse id="a" cx="17.957" cy="45.818" rx="3.848" ry="3.818"/>
    </defs>
    <g fill="none" fill-rule="evenodd">
        <path stroke="#000" d="M3.315 40.391c10.388 2.809 17.889 2.79 22.491 0a7.392 7.392 0 0 0-2.528-13.596c-9.94-1.783-16.636-1.614-20.04.45-3.525 2.138-3.557 6.457.077 13.146z"/>
        <g transform="translate(-6 -5)">
            <use fill="#FFF" xlink:href="#a"/>
            <ellipse cx="17.957" cy="45.818" stroke="#000" rx="4.348" ry="4.318"/>
        </g>
        <path stroke="#000" d="M9.656 26.233L5.94 14.17a10.322 10.322 0 0 1 4.14-11.627A8.143 8.143 0 0 1 21.108 4.43l23.8 31.695"/>
        <path stroke="#000" d="M38.784 36.512c2.956-.652 8.802-.652 11.758 0 2.42.533 2.42 1.961.169 3.45l-.109.072-.13.01c-5.77.439-9.652.439-11.688-.01-3.466-.764-3.427-2.767 0-3.522z"/>
    </g>
</svg>
