<svg xmlns="http://www.w3.org/2000/svg" width="40" height="36" viewBox="0 0 40 36">
    <defs>
        <linearGradient id="a" x1="-60.384%" x2="61.429%" y1="130.931%" y2="33.968%">
            <stop offset="0%" stop-color="#A3DBFF"/>
            <stop offset="100%" stop-color="#346AA0"/>
        </linearGradient>
    </defs>
    <g fill="none" fill-rule="evenodd" stroke="#346AA0">
        <path fill="url(#a)" d="M3.5 16.5V35A1.5 1.5 0 0 0 5 36.5h30a1.5 1.5 0 0 0 1.5-1.5V16.5h-33z" transform="translate(0 -1.4)"/>
        <g fill="#FFF" fill-rule="nonzero">
            <path d="M19.952 9.952c-.545-4.316-1.348-7.005-2.41-8.067C15.948.292 13.39.266 11.828 1.828c-1.562 1.563-1.536 4.12.057 5.714 1.062 1.062 3.75 1.865 8.067 2.41z"/>
            <path d="M19.828 9.952c.545-4.316 1.349-7.005 2.41-8.067C23.833.292 26.39.266 27.953 1.828c1.562 1.563 1.537 4.12-.056 5.714-1.063 1.062-3.752 1.865-8.068 2.41z"/>
        </g>
        <path fill="#FFF" d="M2 19.1a1.5 1.5 0 0 1-1.5-1.5v-6A1.5 1.5 0 0 1 2 10.1h36a1.5 1.5 0 0 1 1.5 1.5v6a1.5 1.5 0 0 1-1.5 1.5H2z"/>
    </g>
</svg>
