<svg xmlns="http://www.w3.org/2000/svg" width="24" height="24" fill="#3769a0" fill-rule="evenodd"><path d="M12 24c6.627 0 12-5.373 12-12S18.627 0 12 0 0 5.373 0 12s5.373 12 12 12zm0-1C5.925 23 1 18.075 1 12S5.925 1 12 1s11 4.925 11 11-4.925 11-11 11zm0-17l2.474.036c.638.03 1.075.13 1.456.28.395.153.73.358 1.063.692a2.93 2.93 0 0 1 .692 1.063c.148.38.25.818.28 1.456L18 12l-.036 2.474c-.03.638-.13 1.075-.28 1.456-.153.395-.358.73-.692 1.063a2.941 2.941 0 0 1-1.063.692c-.38.148-.818.25-1.456.28L12 18c-1.63 0-1.834-.007-2.474-.036s-1.075-.13-1.456-.28a2.941 2.941 0 0 1-1.063-.692 2.94 2.94 0 0 1-.692-1.063c-.148-.38-.25-.818-.28-1.456L6 12l.036-2.474c.03-.638.13-1.075.28-1.456a2.94 2.94 0 0 1 .692-1.063 2.94 2.94 0 0 1 1.063-.692c.38-.148.818-.25 1.456-.28L12 6zm0 1.08l-2.425.035c-.585.027-.902.124-1.114.207a1.86 1.86 0 0 0-.69.448c-.2.2-.34.4-.448.7-.083.212-.18.53-.207 1.114L7.08 12l.035 2.425c.027.585.124.902.207 1.114a1.86 1.86 0 0 0 .448.69c.2.2.4.34.7.448.212.083.53.18 1.114.207L12 16.92l2.425-.035c.585-.027.902-.124 1.114-.207a1.86 1.86 0 0 0 .69-.448c.2-.2.34-.4.448-.7.083-.212.18-.53.207-1.114L16.92 12l-.035-2.425c-.027-.585-.124-.902-.207-1.114a1.859 1.859 0 0 0-.448-.69c-.2-.2-.4-.34-.7-.448-.212-.083-.53-.18-1.114-.207L12 7.08zm0 1.838a3.081 3.081 0 1 1 0 6.162 3.081 3.081 0 0 1 0-6.162zM12 14a2 2 0 1 0 0-4 2 2 0 0 0 0 4zm3.923-5.203a.72.72 0 1 1-1.44 0 .72.72 0 0 1 1.44 0z"/></svg>